<?xml version="1.0" encoding="utf-8"?>
<!-- Generator: Adobe Illustrator 23.0.3, SVG Export Plug-In . SVG Version: 6.00 Build 0)  -->
<svg version="1.1" id="Layer_1" xmlns="http://www.w3.org/2000/svg" xmlns:xlink="http://www.w3.org/1999/xlink" x="0px" y="0px"
	 viewBox="0 0 791.7 79.9" style="enable-background:new 0 0 791.7 79.9;" xml:space="preserve">
<style type="text/css">
	.st0{opacity:0.9;}
	.st1{fill:#001756;}
	.st2{opacity:0.8;fill:url(#SVGID_1_);enable-background:new    ;}
	.st3{opacity:0.8;fill:url(#SVGID_2_);enable-background:new    ;}
	.st4{fill:#EFEFEF;}
	.st5{fill:none;stroke:url(#SVGID_3_);stroke-width:3.8034;stroke-miterlimit:10;}
	.st6{clip-path:url(#SVGID_5_);fill:none;stroke:#0D3AFF;stroke-width:3.8034;stroke-miterlimit:10;}
	.st7{clip-path:url(#SVGID_7_);fill:none;stroke:#0D3AFF;stroke-width:3.8034;stroke-miterlimit:10;}
	.st8{fill:#00004B;}
	.st9{fill:none;stroke:#800D52;stroke-width:16;stroke-miterlimit:10;}
	.st10{fill:none;stroke:#0D3AFF;stroke-width:2;stroke-miterlimit:10;}
	.st11{fill:none;stroke:#FFEC00;stroke-width:16;stroke-miterlimit:10;}
</style>
<g class="st0">
	<polygon class="st1" points="523.6,6.3 413.5,6.3 440.9,31.2 426.6,73.3 523.6,73.3 	"/>
</g>
<g class="st0">
	<polygon class="st1" points="523.6,6.3 633.7,6.3 606.3,31.2 620.6,73.3 523.6,73.3 	"/>
</g>
<linearGradient id="SVGID_1_" gradientUnits="userSpaceOnUse" x1="259" y1="42.2" x2="440.9" y2="42.2" gradientTransform="matrix(1 0 0 -1 0 82)">
	<stop  offset="0" style="stop-color:#000868"/>
	<stop  offset="1" style="stop-color:#0D3AFF"/>
</linearGradient>
<polygon class="st2" points="259,73.3 426.6,73.3 440.9,31.2 413.5,6.3 259,6.3 "/>
<linearGradient id="SVGID_2_" gradientUnits="userSpaceOnUse" x1="-13078.5215" y1="42.2" x2="-12896.6211" y2="42.2" gradientTransform="matrix(-1 0 0 -1 -12290.3213 82)">
	<stop  offset="0" style="stop-color:#000868"/>
	<stop  offset="1" style="stop-color:#0D3AFF"/>
</linearGradient>
<polygon class="st3" points="788.2,73.3 620.6,73.3 606.3,31.2 633.7,6.3 788.2,6.3 "/>
<rect y="6.3" class="st4" width="241.6" height="67"/>
<linearGradient id="SVGID_3_" gradientUnits="userSpaceOnUse" x1="523.6" y1="8.7" x2="523.6" y2="75.7" gradientTransform="matrix(1 0 0 -1 0 82)">
	<stop  offset="0" style="stop-color:#1441ED;stop-opacity:0"/>
	<stop  offset="4.272978e-02" style="stop-color:#1441ED;stop-opacity:8.962709e-02"/>
	<stop  offset="0.4768" style="stop-color:#1441ED"/>
	<stop  offset="0.9531" style="stop-color:#1441ED;stop-opacity:8.962709e-02"/>
	<stop  offset="1" style="stop-color:#1441ED;stop-opacity:0"/>
</linearGradient>
<line class="st5" x1="523.6" y1="6.3" x2="523.6" y2="73.3"/>
<g>
	<g>
		<defs>
			<rect id="SVGID_4_" x="399.2" y="6.3" width="52.6" height="67"/>
		</defs>
		<clipPath id="SVGID_5_">
			<use xlink:href="#SVGID_4_"  style="overflow:visible;"/>
		</clipPath>
		<polyline class="st6" points="424.6,79.3 440.8,31.2 408.2,1.4 		"/>
	</g>
</g>
<g>
	<g>
		<defs>
			<rect id="SVGID_6_" x="595.4" y="6.2" width="52.6" height="67"/>
		</defs>
		<clipPath id="SVGID_7_">
			<use xlink:href="#SVGID_6_"  style="overflow:visible;"/>
		</clipPath>
		<polyline class="st7" points="622.6,79.3 606.4,31.2 639,1.4 		"/>
	</g>
</g>
<g>
	<g>
		<path class="st8" d="M40,42.8L40,42.8c-1.5,2.2-2.9,4.6-4.3,7c0,0-1-3.6-1.4-8.7c-2.4-0.8-4.9-1.7-7.3-2.8c0,0,2.8-1.4,7.2-3.1
			c0.1-2.7,0.5-5.5,1.3-8.4c0,0,1.4,2.7,4.1,6.5c2.8-0.9,5.9-1.8,9.2-2.5c0,0-2.4,3-5.5,7.4c1.8,2.2,3.8,4.6,6.1,6.9
			C49.3,45,45.3,44.3,40,42.8L40,42.8z"/>
		<path class="st8" d="M64.4,41.5c-0.7,1.1-1.8,1.9-3.1,2.5c-0.2-3.6-0.7-6.9-0.7-6.9c-1.1,3-2.3,5.6-3.4,7.9
			c-3.9,0.5-7.7-0.1-7.7-0.1c2.1,2.5,3.7,4,5.1,5c-2,3.3-3.4,5.1-3.4,5.1c2.8-0.6,5-1.7,6.7-2.9c0.7,0.5,1.3,1,1.9,2
			c0,0,1.1-1.6,1.5-5.3C63.9,45.2,64.4,41.5,64.4,41.5L64.4,41.5L64.4,41.5z"/>
		<path class="st8" d="M63.1,31.4c-1.2-2.8-3-4.9-5-6.5c-1.7-3.5-3.6-5.1-3.6-5.1c0.2,0.8,0,1.7-0.3,2.7c-4.2-2.1-7.9-2.3-7.9-2.3
			c2.4,1.6,4.6,3.5,6.4,5.6c-1.7,2.8-3.9,5.1-3.9,5.1c3-0.7,5.3-0.9,7.2-1c2.9,4,4.5,7.4,4.5,7.4c0.1-2.7-0.2-5.1-0.7-7.1
			C62.3,30.4,63.1,31.4,63.1,31.4L63.1,31.4L63.1,31.4z"/>
		<path class="st8" d="M46.3,20c-2-1-3.9-1.7-5.7-2.2c2.3-1.9,4.4-2.4,4.4-2.4c-3.7-0.1-6.8,0.5-9.5,1.5c-3.9-0.3-6.5,0.4-6.5,0.4
			c0.6,0.4,1.1,1.2,1.6,2.2c-3.3,2.3-5,4.7-5,4.7c2-1,4.1-1.8,6.2-2.3c0.2,0.4,0.5,0.8,0.7,1.3c1.4,2.2,2.9,3.7,2.9,3.7
			c0.5-2.6,1.5-4.6,2.6-6.2C42.7,19.9,46.3,20,46.3,20L46.3,20L46.3,20z"/>
		<path class="st8" d="M21,28c1.3-1.2,2.8-2.5,4.6-3.9c0,0-1.7,0-3.5,0.5c1.2-2.9,2.5-4.5,2.5-4.5s-7.6,5.4-9.1,15.1
			c0,0,0.6-1.8,2.8-4.4c0.9,1.9,1.8,3.1,1.8,3.1C20.2,31.8,20.5,29.8,21,28L21,28L21,28z"/>
		<path class="st8" d="M27.1,38.2c-2.6,0.1-4.7,0.3-6.3,0.6C20.3,36,20.2,34,20.2,34c-1.3,2-2.1,3.9-2.7,5.7
			c-1.8,0.7-2.3,1.3-2.3,1.3c0.3,1,0.9,1.9,1.6,2.8c-0.2,4.2,1.1,7,1.1,7c0.3-1.5,0.9-2.9,1.7-4.3c2.3,1.8,4.5,3,4.5,3
			c-1.1-1.9-1.8-4-2.4-6C24.3,40.4,27.1,38.2,27.1,38.2L27.1,38.2L27.1,38.2z"/>
		<path class="st8" d="M40.1,59.9c0,0-2.2-0.9-5.4-2.7c0.1-1.9,0.4-4.3,1-7.4c0,0-2.5,2.5-5.8,4.4c-1.9-1.3-3.9-2.8-5.8-4.6
			c0,0,0.9,2.9,2.8,6.1c-1.7,0.6-3.5,0.9-5.1,0.5c0,0,1.9,2.4,7.8,3.4c1.6,1.9,3.6,3.5,6,4.1c0,0-0.7-0.8-0.9-3.7
			C36.3,60.1,38.1,60.1,40.1,59.9L40.1,59.9L40.1,59.9z"/>
		<path class="st8" d="M50.8,59.6c0.5-2.3,0.1-4.5,0.1-4.5c-1.5,2.2-3,3.8-4.3,5c-3.7,0.2-6.5-0.3-6.5-0.3s1.6,1.6,3.5,2.6
			c-2.5,1.5-4.2,1.7-4.2,1.7c10.9,0.2,17.4-6.9,17.4-6.9C55.1,58.5,53,59.2,50.8,59.6L50.8,59.6L50.8,59.6z"/>
	</g>
</g>
<line class="st9" x1="254.6" y1="73.3" x2="254.6" y2="6.3"/>
<line class="st10" x1="263.6" y1="73.3" x2="263.6" y2="6.3"/>
<line class="st11" x1="783.7" y1="73.3" x2="783.7" y2="6.3"/>
<line class="st10" x1="774.6" y1="73.3" x2="774.6" y2="6.3"/>
</svg>
